<?xml version="1.0" encoding="UTF-8"?>
<!DOCTYPE svg PUBLIC "-//W3C//DTD SVG 1.1//EN" "http://www.w3.org/Graphics/SVG/1.1/DTD/svg11.dtd">
<svg xmlns="http://www.w3.org/2000/svg" version="1.1" width="400px" height="400px" style="shape-rendering:geometricPrecision; text-rendering:geometricPrecision; image-rendering:optimizeQuality; fill-rule:evenodd; clip-rule:evenodd" xmlns:xlink="http://www.w3.org/1999/xlink">
<g><path style="opacity:0.898" fill="#ee9b70" d="M 201.5,88.5 C 201.5,88.1667 201.5,87.8333 201.5,87.5C 203.978,88.8832 206.645,89.8832 209.5,90.5C 209.833,91.1667 210.167,91.8333 210.5,92.5C 207.294,91.5459 204.294,90.2125 201.5,88.5 Z"/></g>
<g><path style="opacity:0.816" fill="#ed9f76" d="M 181.5,89.5 C 181.5,89.8333 181.5,90.1667 181.5,90.5C 180.609,91.1098 179.609,91.4431 178.5,91.5C 178.973,90.0937 179.973,89.427 181.5,89.5 Z"/></g>
<g><path style="opacity:0.835" fill="#f09e70" d="M 178.5,91.5 C 178.027,92.9063 177.027,93.573 175.5,93.5C 175.973,92.0937 176.973,91.427 178.5,91.5 Z"/></g>
<g><path style="opacity:1" fill="#ef6419" d="M 201.5,88.5 C 204.294,90.2125 207.294,91.5459 210.5,92.5C 211.973,94.3947 213.64,96.0613 215.5,97.5C 216.298,99.9663 217.631,101.966 219.5,103.5C 219.5,104.167 219.5,104.833 219.5,105.5C 220.833,111.167 220.833,116.833 219.5,122.5C 217.744,123.552 217.077,125.219 217.5,127.5C 215.919,129.142 215.253,131.142 215.5,133.5C 213.375,136.088 212.042,139.088 211.5,142.5C 208.556,144.716 206.889,147.716 206.5,151.5C 204.025,152.687 203.025,154.687 203.5,157.5C 202.326,158.514 201.66,159.847 201.5,161.5C 200.094,161.973 199.427,162.973 199.5,164.5C 197.801,166.566 196.468,168.9 195.5,171.5C 193.874,173.942 192.541,176.609 191.5,179.5C 191.107,181.284 190.441,182.95 189.5,184.5C 186.471,189.564 183.804,194.897 181.5,200.5C 181.5,201.167 181.5,201.833 181.5,202.5C 181.167,202.5 180.833,202.5 180.5,202.5C 177.916,203.048 176.916,204.715 177.5,207.5C 175.539,209.798 174.539,212.465 174.5,215.5C 173.89,216.391 173.557,217.391 173.5,218.5C 171.273,219.401 170.273,221.067 170.5,223.5C 168.787,224.635 168.12,226.302 168.5,228.5C 164.924,232.098 162.591,236.432 161.5,241.5C 161.5,241.833 161.5,242.167 161.5,242.5C 160.094,242.973 159.427,243.973 159.5,245.5C 158.326,246.514 157.66,247.847 157.5,249.5C 156.206,250.29 155.039,251.29 154,252.5C 151.76,255.724 150.593,259.39 150.5,263.5C 149.4,264.605 148.733,265.938 148.5,267.5C 146.824,268.183 146.157,269.517 146.5,271.5C 144.62,273.755 143.62,276.422 143.5,279.5C 141.554,280.035 140.554,281.368 140.5,283.5C 138.621,284.895 137.621,286.895 137.5,289.5C 135.473,292.22 133.807,295.22 132.5,298.5C 130.5,299.833 128.833,301.5 127.5,303.5C 124.607,303.031 122.607,304.031 121.5,306.5C 114.833,306.5 108.167,306.5 101.5,306.5C 100.7,304.259 99.0336,303.259 96.5,303.5C 96.67,302.178 96.3366,301.011 95.5,300C 92.7083,298.705 90.0416,297.205 87.5,295.5C 87.573,293.973 86.9063,292.973 85.5,292.5C 85.5,291.833 85.5,291.167 85.5,290.5C 84.1667,284.167 84.1667,277.833 85.5,271.5C 87.0739,269.898 87.7406,267.898 87.5,265.5C 88.9063,265.027 89.573,264.027 89.5,262.5C 89.5,262.167 89.5,261.833 89.5,261.5C 90.9063,261.027 91.573,260.027 91.5,258.5C 91.5,258.167 91.5,257.833 91.5,257.5C 92.9063,257.027 93.573,256.027 93.5,254.5C 95.1991,252.434 96.5324,250.1 97.5,247.5C 99.1948,245.103 100.528,242.437 101.5,239.5C 102.5,236.833 103.5,234.167 104.5,231.5C 106.245,229.967 107.245,227.967 107.5,225.5C 107.5,225.167 107.5,224.833 107.5,224.5C 109.326,222.853 110.66,220.853 111.5,218.5C 111.5,218.167 111.5,217.833 111.5,217.5C 112.857,216.41 113.857,215.076 114.5,213.5C 116.895,210.57 118.562,207.236 119.5,203.5C 121.542,200.386 123.209,197.052 124.5,193.5C 124.5,192.833 124.5,192.167 124.5,191.5C 124.833,190.167 125.167,188.833 125.5,187.5C 125.833,187.5 126.167,187.5 126.5,187.5C 128.245,185.967 129.245,183.967 129.5,181.5C 129.5,181.167 129.5,180.833 129.5,180.5C 130.906,180.027 131.573,179.027 131.5,177.5C 131.557,176.391 131.89,175.391 132.5,174.5C 133.906,174.027 134.573,173.027 134.5,171.5C 134.5,171.167 134.5,170.833 134.5,170.5C 135.167,170.167 135.833,169.833 136.5,169.5C 138.074,167.898 138.741,165.898 138.5,163.5C 140.245,161.967 141.245,159.967 141.5,157.5C 143.167,154.833 144.833,152.167 146.5,149.5C 148.213,148.365 148.88,146.698 148.5,144.5C 149.11,143.609 149.443,142.609 149.5,141.5C 149.5,141.167 149.5,140.833 149.5,140.5C 150.857,139.41 151.857,138.076 152.5,136.5C 153.492,134.544 154.492,132.544 155.5,130.5C 156.363,128.579 157.029,126.579 157.5,124.5C 158.906,124.027 159.573,123.027 159.5,121.5C 159.5,121.167 159.5,120.833 159.5,120.5C 160.906,120.027 161.573,119.027 161.5,117.5C 161.5,117.167 161.5,116.833 161.5,116.5C 164.393,114.252 166.06,111.252 166.5,107.5C 166.5,107.167 166.5,106.833 166.5,106.5C 168.245,104.967 169.245,102.967 169.5,100.5C 172.243,98.7607 174.243,96.4274 175.5,93.5C 177.027,93.573 178.027,92.9063 178.5,91.5C 179.609,91.4431 180.609,91.1098 181.5,90.5C 187.95,88.7331 194.617,88.0664 201.5,88.5 Z"/></g>
<g><path style="opacity:0.333" fill="#fed9c3" d="M 209.5,90.5 C 213.833,92.1667 216.833,95.1667 218.5,99.5C 217.5,98.8333 216.5,98.1667 215.5,97.5C 213.64,96.0613 211.973,94.3947 210.5,92.5C 210.167,91.8333 209.833,91.1667 209.5,90.5 Z"/></g>
<g><path style="opacity:0.906" fill="#ea9363" d="M 175.5,93.5 C 174.243,96.4274 172.243,98.7607 169.5,100.5C 170.757,97.5726 172.757,95.2393 175.5,93.5 Z"/></g>
<g><path style="opacity:0.255" fill="#fedec7" d="M 209.5,90.5 C 206.645,89.8832 203.978,88.8832 201.5,87.5C 194.649,87.009 187.982,87.6756 181.5,89.5C 179.973,89.427 178.973,90.0937 178.5,91.5C 176.973,91.427 175.973,92.0937 175.5,93.5C 172.757,95.2393 170.757,97.5726 169.5,100.5C 169.167,100.5 168.833,100.5 168.5,100.5C 171.932,92.6012 177.932,87.7679 186.5,86C 191.167,85.3333 195.833,85.3333 200.5,86C 203.881,86.9149 206.881,88.4149 209.5,90.5 Z"/></g>
<g><path style="opacity:0.914" fill="#ee844e" d="M 201.5,87.5 C 201.5,87.8333 201.5,88.1667 201.5,88.5C 194.617,88.0664 187.95,88.7331 181.5,90.5C 181.5,90.1667 181.5,89.8333 181.5,89.5C 187.982,87.6756 194.649,87.009 201.5,87.5 Z"/></g>
<g><path style="opacity:0.808" fill="#f2a983" d="M 215.5,97.5 C 216.5,98.1667 217.5,98.8333 218.5,99.5C 218.5,99.8333 218.5,100.167 218.5,100.5C 219.11,101.391 219.443,102.391 219.5,103.5C 217.631,101.966 216.298,99.9663 215.5,97.5 Z"/></g>
<g><path style="opacity:0.216" fill="#ffecdb" d="M 218.5,100.5 C 220.097,101.737 221.263,103.404 222,105.5C 222.407,108.682 222.907,111.849 223.5,115C 222.907,118.151 222.407,121.318 222,124.5C 221.098,126.431 219.931,128.097 218.5,129.5C 218.5,128.833 218.5,128.167 218.5,127.5C 219.404,126.791 219.737,125.791 219.5,124.5C 220.222,124.082 220.722,123.416 221,122.5C 221.667,117.167 221.667,111.833 221,106.5C 220.617,105.944 220.117,105.611 219.5,105.5C 219.5,104.833 219.5,104.167 219.5,103.5C 219.443,102.391 219.11,101.391 218.5,100.5 Z"/></g>
<g><path style="opacity:0.145" fill="#ffe4d1" d="M 168.5,100.5 C 167.637,102.421 166.971,104.421 166.5,106.5C 166.5,106.833 166.5,107.167 166.5,107.5C 164.062,109.999 162.395,112.999 161.5,116.5C 161.5,116.833 161.5,117.167 161.5,117.5C 160.094,117.973 159.427,118.973 159.5,120.5C 159.5,120.833 159.5,121.167 159.5,121.5C 158.094,121.973 157.427,122.973 157.5,124.5C 156.833,124.833 156.167,125.167 155.5,125.5C 158.909,116.542 163.243,108.208 168.5,100.5 Z"/></g>
<g><path style="opacity:0.733" fill="#efa67f" d="M 168.5,100.5 C 168.833,100.5 169.167,100.5 169.5,100.5C 169.245,102.967 168.245,104.967 166.5,106.5C 166.971,104.421 167.637,102.421 168.5,100.5 Z"/></g>
<g><path style="opacity:0.914" fill="#f29363" d="M 166.5,107.5 C 166.06,111.252 164.393,114.252 161.5,116.5C 162.395,112.999 164.062,109.999 166.5,107.5 Z"/></g>
<g><path style="opacity:0.78" fill="#f4a378" d="M 219.5,105.5 C 220.117,105.611 220.617,105.944 221,106.5C 221.667,111.833 221.667,117.167 221,122.5C 220.722,123.416 220.222,124.082 219.5,124.5C 219.5,123.833 219.5,123.167 219.5,122.5C 220.833,116.833 220.833,111.167 219.5,105.5 Z"/></g>
<g><path style="opacity:0.776" fill="#ed9d6c" d="M 161.5,117.5 C 161.573,119.027 160.906,120.027 159.5,120.5C 159.427,118.973 160.094,117.973 161.5,117.5 Z"/></g>
<g><path style="opacity:0.722" fill="#eb9e6f" d="M 159.5,121.5 C 159.573,123.027 158.906,124.027 157.5,124.5C 157.427,122.973 158.094,121.973 159.5,121.5 Z"/></g>
<g><path style="opacity:1" fill="#ea7f4a" d="M 219.5,122.5 C 219.5,123.167 219.5,123.833 219.5,124.5C 219.737,125.791 219.404,126.791 218.5,127.5C 218.167,127.5 217.833,127.5 217.5,127.5C 217.077,125.219 217.744,123.552 219.5,122.5 Z"/></g>
<g><path style="opacity:0.118" fill="#ffe5d3" d="M 155.5,126.5 C 155.167,127.833 154.833,129.167 154.5,130.5C 153.4,131.605 152.733,132.938 152.5,134.5C 151.833,134.833 151.167,135.167 150.5,135.5C 151.807,132.22 153.473,129.22 155.5,126.5 Z"/></g>
<g><path style="opacity:0.776" fill="#efa581" d="M 157.5,124.5 C 157.029,126.579 156.363,128.579 155.5,130.5C 155.167,130.5 154.833,130.5 154.5,130.5C 154.833,129.167 155.167,127.833 155.5,126.5C 155.5,126.167 155.5,125.833 155.5,125.5C 156.167,125.167 156.833,124.833 157.5,124.5 Z"/></g>
<g><path style="opacity:0.639" fill="#f0a47c" d="M 217.5,127.5 C 217.833,127.5 218.167,127.5 218.5,127.5C 218.5,128.167 218.5,128.833 218.5,129.5C 217.143,130.59 216.143,131.924 215.5,133.5C 215.253,131.142 215.919,129.142 217.5,127.5 Z"/></g>
<g><path style="opacity:0.129" fill="#ffe3ce" d="M 218.5,129.5 C 215.954,136.923 212.621,143.923 208.5,150.5C 208.957,147.594 209.957,144.928 211.5,142.5C 212.042,139.088 213.375,136.088 215.5,133.5C 216.143,131.924 217.143,130.59 218.5,129.5 Z"/></g>
<g><path style="opacity:0.914" fill="#ec8a54" d="M 154.5,130.5 C 154.833,130.5 155.167,130.5 155.5,130.5C 154.492,132.544 153.492,134.544 152.5,136.5C 152.5,135.833 152.5,135.167 152.5,134.5C 152.733,132.938 153.4,131.605 154.5,130.5 Z"/></g>
<g><path style="opacity:0.698" fill="#f5ac83" d="M 152.5,134.5 C 152.5,135.167 152.5,135.833 152.5,136.5C 151.857,138.076 150.857,139.41 149.5,140.5C 150.038,138.883 150.371,137.216 150.5,135.5C 151.167,135.167 151.833,134.833 152.5,134.5 Z"/></g>
<g><path style="opacity:0.643" fill="#f5a679" d="M 149.5,141.5 C 149.443,142.609 149.11,143.609 148.5,144.5C 148.167,144.5 147.833,144.5 147.5,144.5C 147.427,142.973 148.094,141.973 149.5,141.5 Z"/></g>
<g><path style="opacity:1" fill="#e47741" d="M 147.5,144.5 C 147.833,144.5 148.167,144.5 148.5,144.5C 148.88,146.698 148.213,148.365 146.5,149.5C 146.5,148.833 146.5,148.167 146.5,147.5C 146.557,146.391 146.89,145.391 147.5,144.5 Z"/></g>
<g><path style="opacity:0.675" fill="#f6a981" d="M 211.5,142.5 C 209.957,144.928 208.957,147.594 208.5,150.5C 207.833,150.833 207.167,151.167 206.5,151.5C 206.889,147.716 208.556,144.716 211.5,142.5 Z"/></g>
<g><path style="opacity:0.227" fill="#ffe8d2" d="M 150.5,135.5 C 150.371,137.216 150.038,138.883 149.5,140.5C 149.5,140.833 149.5,141.167 149.5,141.5C 148.094,141.973 147.427,142.973 147.5,144.5C 146.89,145.391 146.557,146.391 146.5,147.5C 144.033,150.337 142.367,153.671 141.5,157.5C 139.755,159.033 138.755,161.033 138.5,163.5C 137.326,164.514 136.66,165.847 136.5,167.5C 135.094,167.973 134.427,168.973 134.5,170.5C 134.5,170.833 134.5,171.167 134.5,171.5C 133.094,171.973 132.427,172.973 132.5,174.5C 131.89,175.391 131.557,176.391 131.5,177.5C 130.094,177.973 129.427,178.973 129.5,180.5C 129.5,180.833 129.5,181.167 129.5,181.5C 127.755,183.033 126.755,185.033 126.5,187.5C 126.167,187.5 125.833,187.5 125.5,187.5C 132.983,169.705 141.317,152.372 150.5,135.5 Z"/></g>
<g><path style="opacity:0.847" fill="#ed996b" d="M 146.5,147.5 C 146.5,148.167 146.5,148.833 146.5,149.5C 144.833,152.167 143.167,154.833 141.5,157.5C 142.367,153.671 144.033,150.337 146.5,147.5 Z"/></g>
<g><path style="opacity:0.698" fill="#ef996c" d="M 206.5,151.5 C 205.492,153.544 204.492,155.544 203.5,157.5C 203.025,154.687 204.025,152.687 206.5,151.5 Z"/></g>
<g><path style="opacity:0.843" fill="#e9996b" d="M 141.5,157.5 C 141.245,159.967 140.245,161.967 138.5,163.5C 138.755,161.033 139.755,159.033 141.5,157.5 Z"/></g>
<g><path style="opacity:0.698" fill="#f19c6f" d="M 201.5,161.5 C 201.573,163.027 200.906,164.027 199.5,164.5C 199.427,162.973 200.094,161.973 201.5,161.5 Z"/></g>
<g><path style="opacity:1" fill="#e87f44" d="M 138.5,163.5 C 138.741,165.898 138.074,167.898 136.5,169.5C 136.5,168.833 136.5,168.167 136.5,167.5C 136.66,165.847 137.326,164.514 138.5,163.5 Z"/></g>
<g><path style="opacity:0.69" fill="#f2a680" d="M 136.5,167.5 C 136.5,168.167 136.5,168.833 136.5,169.5C 135.833,169.833 135.167,170.167 134.5,170.5C 134.427,168.973 135.094,167.973 136.5,167.5 Z"/></g>
<g><path style="opacity:0.761" fill="#ee8f5e" d="M 199.5,164.5 C 199.275,167.546 197.942,169.879 195.5,171.5C 196.468,168.9 197.801,166.566 199.5,164.5 Z"/></g>
<g><path style="opacity:0.204" fill="#fee0cd" d="M 258.5,175.5 C 257.833,175.5 257.167,175.5 256.5,175.5C 253.673,174.042 250.673,173.042 247.5,172.5C 243.689,171.355 239.689,171.188 235.5,172C 233.026,172.037 231.026,172.87 229.5,174.5C 229.167,174.5 228.833,174.5 228.5,174.5C 227.391,174.557 226.391,174.89 225.5,175.5C 226.348,173.907 227.681,172.74 229.5,172C 237.13,170.247 244.797,170.081 252.5,171.5C 254.786,172.579 256.786,173.913 258.5,175.5 Z"/></g>
<g><path style="opacity:0.847" fill="#ef9c6f" d="M 247.5,172.5 C 243.629,172.185 239.962,172.518 236.5,173.5C 234.379,173.325 232.379,173.659 230.5,174.5C 230.167,174.5 229.833,174.5 229.5,174.5C 231.026,172.87 233.026,172.037 235.5,172C 239.689,171.188 243.689,171.355 247.5,172.5 Z"/></g>
<g><path style="opacity:0.647" fill="#f3a67a" d="M 134.5,171.5 C 134.573,173.027 133.906,174.027 132.5,174.5C 132.427,172.973 133.094,171.973 134.5,171.5 Z"/></g>
<g><path style="opacity:0.102" fill="#fedcc5" d="M 208.5,150.5 C 201.961,164.911 194.961,178.911 187.5,192.5C 187.694,189.67 188.361,187.004 189.5,184.5C 190.441,182.95 191.107,181.284 191.5,179.5C 194.012,177.535 195.345,174.868 195.5,171.5C 197.942,169.879 199.275,167.546 199.5,164.5C 200.906,164.027 201.573,163.027 201.5,161.5C 201.66,159.847 202.326,158.514 203.5,157.5C 204.492,155.544 205.492,153.544 206.5,151.5C 207.167,151.167 207.833,150.833 208.5,150.5 Z"/></g>
<g><path style="opacity:1" fill="#ef6419" d="M 236.5,173.5 C 242.711,173.016 248.711,173.849 254.5,176C 255.337,177.011 255.67,178.178 255.5,179.5C 257.292,179.366 258.958,179.699 260.5,180.5C 261.373,182.886 262.873,184.886 265,186.5C 266.027,189.662 267.194,192.662 268.5,195.5C 268.587,200.537 268.254,205.537 267.5,210.5C 266.094,210.973 265.427,211.973 265.5,213.5C 264.833,215.5 264.167,217.5 263.5,219.5C 262.094,219.973 261.427,220.973 261.5,222.5C 260.559,224.05 259.893,225.716 259.5,227.5C 258.094,227.973 257.427,228.973 257.5,230.5C 257.5,230.833 257.5,231.167 257.5,231.5C 256.833,231.833 256.167,232.167 255.5,232.5C 252.229,236.1 250.562,240.434 250.5,245.5C 249.026,246.436 248.026,247.77 247.5,249.5C 246.153,248.829 244.986,248.829 244,249.5C 244.305,251.443 244.305,253.443 244,255.5C 242.759,253.579 241.259,253.246 239.5,254.5C 240.665,259.169 239.498,263.169 236,266.5C 235.963,271.593 234.797,276.26 232.5,280.5C 232.5,281.167 232.5,281.833 232.5,282.5C 230.787,283.635 230.12,285.302 230.5,287.5C 227.147,290.868 224.814,294.868 223.5,299.5C 222.167,300.167 221.167,301.167 220.5,302.5C 218.326,302.75 216.659,303.75 215.5,305.5C 212.994,306.75 210.327,307.416 207.5,307.5C 201.623,307.787 195.956,307.12 190.5,305.5C 189.609,304.89 188.609,304.557 187.5,304.5C 186.415,302.413 184.749,301.08 182.5,300.5C 182.167,299.5 181.5,298.833 180.5,298.5C 180.573,296.973 179.906,295.973 178.5,295.5C 178.5,295.167 178.5,294.833 178.5,294.5C 178.573,292.973 177.906,291.973 176.5,291.5C 175.807,282.523 176.807,273.857 179.5,265.5C 181.915,262.66 183.248,259.327 183.5,255.5C 184.857,254.41 185.857,253.076 186.5,251.5C 190.017,246.291 192.684,240.625 194.5,234.5C 194.5,233.833 194.5,233.167 194.5,232.5C 195.906,232.027 196.573,231.027 196.5,229.5C 196.5,229.167 196.5,228.833 196.5,228.5C 198.245,226.967 199.245,224.967 199.5,222.5C 199.5,222.167 199.5,221.833 199.5,221.5C 201.997,219.156 203.997,216.489 205.5,213.5C 208.768,209.506 210.768,204.839 211.5,199.5C 213.585,197.316 214.585,194.649 214.5,191.5C 215.11,190.609 215.443,189.609 215.5,188.5C 216.906,188.027 217.573,187.027 217.5,185.5C 218.906,185.027 219.573,184.027 219.5,182.5C 219.833,182.5 220.167,182.5 220.5,182.5C 224.207,180.312 227.54,177.645 230.5,174.5C 232.379,173.659 234.379,173.325 236.5,173.5 Z"/></g>
<g><path style="opacity:1" fill="#e6783d" d="M 236.5,173.5 C 239.962,172.518 243.629,172.185 247.5,172.5C 250.673,173.042 253.673,174.042 256.5,175.5C 257.262,177.262 258.596,178.262 260.5,178.5C 260.5,179.167 260.5,179.833 260.5,180.5C 258.958,179.699 257.292,179.366 255.5,179.5C 255.67,178.178 255.337,177.011 254.5,176C 248.711,173.849 242.711,173.016 236.5,173.5 Z"/></g>
<g><path style="opacity:0.714" fill="#f0a779" d="M 228.5,174.5 C 227.738,176.262 226.404,177.262 224.5,177.5C 224.833,176.833 225.167,176.167 225.5,175.5C 226.391,174.89 227.391,174.557 228.5,174.5 Z"/></g>
<g><path style="opacity:0.004" fill="#fff1e8" d="M 258.5,175.5 C 260.5,175.5 261.5,176.5 261.5,178.5C 261.167,178.5 260.833,178.5 260.5,178.5C 259.833,177.5 259.167,176.5 258.5,175.5 Z"/></g>
<g><path style="opacity:0.392" fill="#f8b793" d="M 256.5,175.5 C 257.167,175.5 257.833,175.5 258.5,175.5C 259.167,176.5 259.833,177.5 260.5,178.5C 258.596,178.262 257.262,177.262 256.5,175.5 Z"/></g>
<g><path style="opacity:0.671" fill="#eb8b56" d="M 195.5,171.5 C 195.345,174.868 194.012,177.535 191.5,179.5C 192.541,176.609 193.874,173.942 195.5,171.5 Z"/></g>
<g><path style="opacity:1" fill="#df6d32" d="M 228.5,174.5 C 228.833,174.5 229.167,174.5 229.5,174.5C 229.833,174.5 230.167,174.5 230.5,174.5C 227.54,177.645 224.207,180.312 220.5,182.5C 221.833,180.833 223.167,179.167 224.5,177.5C 226.404,177.262 227.738,176.262 228.5,174.5 Z"/></g>
<g><path style="opacity:0.02" fill="#fff1e6" d="M 261.5,178.5 C 262.833,178.5 263.5,179.167 263.5,180.5C 262.5,180.167 261.833,179.5 261.5,178.5 Z"/></g>
<g><path style="opacity:0.694" fill="#f2a785" d="M 131.5,177.5 C 131.573,179.027 130.906,180.027 129.5,180.5C 129.427,178.973 130.094,177.973 131.5,177.5 Z"/></g>
<g><path style="opacity:0.843" fill="#f2a581" d="M 260.5,178.5 C 260.833,178.5 261.167,178.5 261.5,178.5C 261.833,179.5 262.5,180.167 263.5,180.5C 263.833,181.5 264.5,182.167 265.5,182.5C 265.5,183.167 265.5,183.833 265.5,184.5C 263.833,183.167 262.167,181.833 260.5,180.5C 260.5,179.833 260.5,179.167 260.5,178.5 Z"/></g>
<g><path style="opacity:0.765" fill="#f1a47a" d="M 224.5,177.5 C 223.167,179.167 221.833,180.833 220.5,182.5C 220.167,182.5 219.833,182.5 219.5,182.5C 220.167,179.833 221.833,178.167 224.5,177.5 Z"/></g>
<g><path style="opacity:0.012" fill="#fff3ef" d="M 263.5,180.5 C 264.833,180.5 265.5,181.167 265.5,182.5C 264.5,182.167 263.833,181.5 263.5,180.5 Z"/></g>
<g><path style="opacity:0.776" fill="#e99b71" d="M 219.5,182.5 C 219.573,184.027 218.906,185.027 217.5,185.5C 217.427,183.973 218.094,182.973 219.5,182.5 Z"/></g>
<g><path style="opacity:0.043" fill="#ffe7d3" d="M 265.5,182.5 C 267.771,184.612 269.104,187.279 269.5,190.5C 268.833,190.167 268.167,189.833 267.5,189.5C 267.598,187.447 266.931,185.78 265.5,184.5C 265.5,183.833 265.5,183.167 265.5,182.5 Z"/></g>
<g><path style="opacity:0.208" fill="#ffe8dc" d="M 225.5,175.5 C 225.167,176.167 224.833,176.833 224.5,177.5C 221.833,178.167 220.167,179.833 219.5,182.5C 218.094,182.973 217.427,183.973 217.5,185.5C 216.833,185.833 216.167,186.167 215.5,186.5C 216.777,180.934 220.111,177.267 225.5,175.5 Z"/></g>
<g><path style="opacity:0.8" fill="#efa078" d="M 129.5,181.5 C 129.245,183.967 128.245,185.967 126.5,187.5C 126.755,185.033 127.755,183.033 129.5,181.5 Z"/></g>
<g><path style="opacity:0.584" fill="#f6ab82" d="M 217.5,185.5 C 217.573,187.027 216.906,188.027 215.5,188.5C 215.5,187.833 215.5,187.167 215.5,186.5C 216.167,186.167 216.833,185.833 217.5,185.5 Z"/></g>
<g><path style="opacity:0.082" fill="#fff3e8" d="M 215.5,186.5 C 215.5,187.167 215.5,187.833 215.5,188.5C 214.833,188.833 214.167,189.167 213.5,189.5C 213.427,187.973 214.094,186.973 215.5,186.5 Z"/></g>
<g><path style="opacity:0.125" fill="#ffe3cf" d="M 125.5,187.5 C 125.167,188.833 124.833,190.167 124.5,191.5C 123.833,191.833 123.167,192.167 122.5,192.5C 122.75,190.326 123.75,188.659 125.5,187.5 Z"/></g>
<g><path style="opacity:1" fill="#e7783e" d="M 260.5,180.5 C 262.167,181.833 263.833,183.167 265.5,184.5C 266.931,185.78 267.598,187.447 267.5,189.5C 268.15,191.435 268.483,193.435 268.5,195.5C 267.194,192.662 266.027,189.662 265,186.5C 262.873,184.886 261.373,182.886 260.5,180.5 Z"/></g>
<g><path style="opacity:0.639" fill="#ef996d" d="M 189.5,184.5 C 188.361,187.004 187.694,189.67 187.5,192.5C 185.896,193.287 185.229,194.62 185.5,196.5C 184.167,197.833 182.833,199.167 181.5,200.5C 183.804,194.897 186.471,189.564 189.5,184.5 Z"/></g>
<g><path style="opacity:0.561" fill="#f3b491" d="M 124.5,191.5 C 124.5,192.167 124.5,192.833 124.5,193.5C 123.833,193.833 123.167,194.167 122.5,194.5C 122.5,193.833 122.5,193.167 122.5,192.5C 123.167,192.167 123.833,191.833 124.5,191.5 Z"/></g>
<g><path style="opacity:0.098" fill="#fee1cc" d="M 215.5,188.5 C 215.443,189.609 215.11,190.609 214.5,191.5C 212.992,193.181 211.992,195.181 211.5,197.5C 211.167,197.5 210.833,197.5 210.5,197.5C 210.597,194.406 211.597,191.74 213.5,189.5C 214.167,189.167 214.833,188.833 215.5,188.5 Z"/></g>
<g><path style="opacity:0.196" fill="#ffe3d1" d="M 187.5,192.5 C 187.771,194.38 187.104,195.713 185.5,196.5C 185.229,194.62 185.896,193.287 187.5,192.5 Z"/></g>
<g><path style="opacity:0.161" fill="#ffe1d1" d="M 122.5,192.5 C 122.5,193.167 122.5,193.833 122.5,194.5C 122.068,195.71 121.401,196.71 120.5,197.5C 120.402,195.447 121.069,193.78 122.5,192.5 Z"/></g>
<g><path style="opacity:1" fill="#e7824d" d="M 214.5,191.5 C 214.585,194.649 213.585,197.316 211.5,199.5C 211.5,198.833 211.5,198.167 211.5,197.5C 211.992,195.181 212.992,193.181 214.5,191.5 Z"/></g>
<g><path style="opacity:0.596" fill="#f5b591" d="M 210.5,197.5 C 210.833,197.5 211.167,197.5 211.5,197.5C 211.5,198.167 211.5,198.833 211.5,199.5C 210.833,199.833 210.167,200.167 209.5,200.5C 209.557,199.391 209.89,198.391 210.5,197.5 Z"/></g>
<g><path style="opacity:0.918" fill="#ed8f60" d="M 267.5,189.5 C 268.167,189.833 268.833,190.167 269.5,190.5C 269.713,197.211 269.38,203.877 268.5,210.5C 268.167,210.5 267.833,210.5 267.5,210.5C 268.254,205.537 268.587,200.537 268.5,195.5C 268.483,193.435 268.15,191.435 267.5,189.5 Z"/></g>
<g><path style="opacity:0.439" fill="#fddcc5" d="M 269.5,190.5 C 271.95,196.626 272.117,202.959 270,209.5C 269.617,210.056 269.117,210.389 268.5,210.5C 269.38,203.877 269.713,197.211 269.5,190.5 Z"/></g>
<g><path style="opacity:1" fill="#eb8650" d="M 124.5,193.5 C 123.209,197.052 121.542,200.386 119.5,203.5C 119.5,202.833 119.5,202.167 119.5,201.5C 119.833,200.167 120.167,198.833 120.5,197.5C 121.401,196.71 122.068,195.71 122.5,194.5C 123.167,194.167 123.833,193.833 124.5,193.5 Z"/></g>
<g><path style="opacity:0.137" fill="#ffe8dc" d="M 120.5,197.5 C 120.167,198.833 119.833,200.167 119.5,201.5C 118.094,201.973 117.427,202.973 117.5,204.5C 117.068,205.71 116.401,206.71 115.5,207.5C 115.659,203.326 117.325,199.992 120.5,197.5 Z"/></g>
<g><path style="opacity:0.145" fill="#fde7d9" d="M 210.5,197.5 C 209.89,198.391 209.557,199.391 209.5,200.5C 209.5,200.833 209.5,201.167 209.5,201.5C 207.787,202.635 207.12,204.302 207.5,206.5C 207.158,207.338 206.492,207.672 205.5,207.5C 205.675,203.243 207.341,199.91 210.5,197.5 Z"/></g>
<g><path style="opacity:0.561" fill="#fbb491" d="M 119.5,201.5 C 119.5,202.167 119.5,202.833 119.5,203.5C 118.833,203.833 118.167,204.167 117.5,204.5C 117.427,202.973 118.094,201.973 119.5,201.5 Z"/></g>
<g><path style="opacity:0.561" fill="#f4aa84" d="M 209.5,201.5 C 209.204,203.403 208.537,205.07 207.5,206.5C 207.12,204.302 207.787,202.635 209.5,201.5 Z"/></g>
<g><path style="opacity:1" fill="#e47438" d="M 180.5,202.5 C 179.89,203.391 179.557,204.391 179.5,205.5C 179.672,206.492 179.338,207.158 178.5,207.5C 178.167,207.5 177.833,207.5 177.5,207.5C 176.916,204.715 177.916,203.048 180.5,202.5 Z"/></g>
<g><path style="opacity:0.533" fill="#f3ae84" d="M 180.5,202.5 C 180.833,202.5 181.167,202.5 181.5,202.5C 181.573,204.027 180.906,205.027 179.5,205.5C 179.557,204.391 179.89,203.391 180.5,202.5 Z"/></g>
<g><path style="opacity:1" fill="#e67435" d="M 211.5,199.5 C 210.768,204.839 208.768,209.506 205.5,213.5C 205.5,212.833 205.5,212.167 205.5,211.5C 205.5,210.833 205.5,210.167 205.5,209.5C 205.5,208.833 205.5,208.167 205.5,207.5C 206.492,207.672 207.158,207.338 207.5,206.5C 208.537,205.07 209.204,203.403 209.5,201.5C 209.5,201.167 209.5,200.833 209.5,200.5C 210.167,200.167 210.833,199.833 211.5,199.5 Z"/></g>
<g><path style="opacity:0.867" fill="#ea905e" d="M 177.5,207.5 C 177.833,207.5 178.167,207.5 178.5,207.5C 177.528,210.437 176.195,213.103 174.5,215.5C 174.539,212.465 175.539,209.798 177.5,207.5 Z"/></g>
<g><path style="opacity:0.098" fill="#ffeee2" d="M 205.5,207.5 C 205.5,208.167 205.5,208.833 205.5,209.5C 204.833,209.833 204.167,210.167 203.5,210.5C 203.427,208.973 204.094,207.973 205.5,207.5 Z"/></g>
<g><path style="opacity:1" fill="#e97d43" d="M 119.5,203.5 C 118.562,207.236 116.895,210.57 114.5,213.5C 114.5,212.833 114.5,212.167 114.5,211.5C 114.833,210.167 115.167,208.833 115.5,207.5C 116.401,206.71 117.068,205.71 117.5,204.5C 118.167,204.167 118.833,203.833 119.5,203.5 Z"/></g>
<g><path style="opacity:0.212" fill="#fee2ca" d="M 185.5,196.5 C 182.44,205.04 178.44,213.04 173.5,220.5C 173.5,219.833 173.5,219.167 173.5,218.5C 173.557,217.391 173.89,216.391 174.5,215.5C 176.195,213.103 177.528,210.437 178.5,207.5C 179.338,207.158 179.672,206.492 179.5,205.5C 180.906,205.027 181.573,204.027 181.5,202.5C 181.5,201.833 181.5,201.167 181.5,200.5C 182.833,199.167 184.167,197.833 185.5,196.5 Z"/></g>
<g><path style="opacity:0.353" fill="#fac2a4" d="M 205.5,209.5 C 205.5,210.167 205.5,210.833 205.5,211.5C 204.833,211.833 204.167,212.167 203.5,212.5C 203.5,212.167 203.5,211.833 203.5,211.5C 203.5,211.167 203.5,210.833 203.5,210.5C 204.167,210.167 204.833,209.833 205.5,209.5 Z"/></g>
<g><path style="opacity:0.769" fill="#ed996b" d="M 267.5,210.5 C 267.573,212.027 266.906,213.027 265.5,213.5C 265.427,211.973 266.094,210.973 267.5,210.5 Z"/></g>
<g><path style="opacity:0.11" fill="#fdecde" d="M 203.5,211.5 C 203.5,211.833 203.5,212.167 203.5,212.5C 202.737,214.368 201.737,216.035 200.5,217.5C 200.461,214.911 201.461,212.911 203.5,211.5 Z"/></g>
<g><path style="opacity:0.808" fill="#f3a07b" d="M 114.5,211.5 C 114.5,212.167 114.5,212.833 114.5,213.5C 113.857,215.076 112.857,216.41 111.5,217.5C 111.755,215.033 112.755,213.033 114.5,211.5 Z"/></g>
<g><path style="opacity:0.957" fill="#ee9866" d="M 205.5,211.5 C 205.5,212.167 205.5,212.833 205.5,213.5C 203.997,216.489 201.997,219.156 199.5,221.5C 199.833,220.167 200.167,218.833 200.5,217.5C 201.737,216.035 202.737,214.368 203.5,212.5C 204.167,212.167 204.833,211.833 205.5,211.5 Z"/></g>
<g><path style="opacity:0.051" fill="#ffe7da" d="M 115.5,207.5 C 115.167,208.833 114.833,210.167 114.5,211.5C 112.755,213.033 111.755,215.033 111.5,217.5C 111.5,217.833 111.5,218.167 111.5,218.5C 110.5,219.167 109.5,219.833 108.5,220.5C 109.902,215.596 112.235,211.262 115.5,207.5 Z"/></g>
<g><path style="opacity:0.11" fill="#ffeede" d="M 200.5,217.5 C 200.167,218.833 199.833,220.167 199.5,221.5C 199.5,221.833 199.5,222.167 199.5,222.5C 197.953,223.768 196.953,225.435 196.5,227.5C 196.167,227.5 195.833,227.5 195.5,227.5C 196.367,223.671 198.033,220.337 200.5,217.5 Z"/></g>
<g><path style="opacity:0.102" fill="#fedfcd" d="M 267.5,210.5 C 267.833,210.5 268.167,210.5 268.5,210.5C 268.092,214.858 266.426,218.524 263.5,221.5C 263.5,220.833 263.5,220.167 263.5,219.5C 264.167,217.5 264.833,215.5 265.5,213.5C 266.906,213.027 267.573,212.027 267.5,210.5 Z"/></g>
<g><path style="opacity:0.62" fill="#efa57b" d="M 173.5,218.5 C 173.5,219.167 173.5,219.833 173.5,220.5C 172.272,221.306 171.272,222.306 170.5,223.5C 170.273,221.067 171.273,219.401 173.5,218.5 Z"/></g>
<g><path style="opacity:0.671" fill="#f1a57c" d="M 263.5,219.5 C 263.5,220.167 263.5,220.833 263.5,221.5C 262.833,221.833 262.167,222.167 261.5,222.5C 261.427,220.973 262.094,219.973 263.5,219.5 Z"/></g>
<g><path style="opacity:0.557" fill="#f6ad83" d="M 111.5,218.5 C 110.66,220.853 109.326,222.853 107.5,224.5C 107.833,223.167 108.167,221.833 108.5,220.5C 109.5,219.833 110.5,219.167 111.5,218.5 Z"/></g>
<g><path style="opacity:0.161" fill="#ffe9da" d="M 108.5,220.5 C 108.167,221.833 107.833,223.167 107.5,224.5C 107.5,224.833 107.5,225.167 107.5,225.5C 106.833,225.833 106.167,226.167 105.5,226.5C 105.755,224.033 106.755,222.033 108.5,220.5 Z"/></g>
<g><path style="opacity:0.847" fill="#f1986b" d="M 170.5,223.5 C 170.204,225.403 169.537,227.07 168.5,228.5C 168.12,226.302 168.787,224.635 170.5,223.5 Z"/></g>
<g><path style="opacity:0.165" fill="#ffe2ce" d="M 173.5,220.5 C 172.633,224.329 170.967,227.663 168.5,230.5C 168.5,229.833 168.5,229.167 168.5,228.5C 169.537,227.07 170.204,225.403 170.5,223.5C 171.272,222.306 172.272,221.306 173.5,220.5 Z"/></g>
<g><path style="opacity:0.843" fill="#ef9d70" d="M 199.5,222.5 C 199.245,224.967 198.245,226.967 196.5,228.5C 196.5,228.167 196.5,227.833 196.5,227.5C 196.953,225.435 197.953,223.768 199.5,222.5 Z"/></g>
<g><path style="opacity:0.702" fill="#f29a6f" d="M 259.5,227.5 C 259.573,229.027 258.906,230.027 257.5,230.5C 257.427,228.973 258.094,227.973 259.5,227.5 Z"/></g>
<g><path style="opacity:0.698" fill="#f7a982" d="M 107.5,225.5 C 107.245,227.967 106.245,229.967 104.5,231.5C 104.833,230.167 105.167,228.833 105.5,227.5C 105.5,227.167 105.5,226.833 105.5,226.5C 106.167,226.167 106.833,225.833 107.5,225.5 Z"/></g>
<g><path style="opacity:0.749" fill="#ed996e" d="M 168.5,228.5 C 168.5,229.167 168.5,229.833 168.5,230.5C 166.755,232.033 165.755,234.033 165.5,236.5C 165.5,236.833 165.5,237.167 165.5,237.5C 164.094,237.973 163.427,238.973 163.5,240.5C 162.833,240.833 162.167,241.167 161.5,241.5C 162.591,236.432 164.924,232.098 168.5,228.5 Z"/></g>
<g><path style="opacity:0.8" fill="#f29c71" d="M 196.5,229.5 C 196.573,231.027 195.906,232.027 194.5,232.5C 194.427,230.973 195.094,229.973 196.5,229.5 Z"/></g>
<g><path style="opacity:0.09" fill="#ffe5d6" d="M 168.5,230.5 C 168.539,233.089 167.539,235.089 165.5,236.5C 165.755,234.033 166.755,232.033 168.5,230.5 Z"/></g>
<g><path style="opacity:0.988" fill="#e77b42" d="M 255.5,232.5 C 255.371,234.216 255.038,235.883 254.5,237.5C 253.674,240.485 252.341,243.151 250.5,245.5C 250.562,240.434 252.229,236.1 255.5,232.5 Z"/></g>
<g><path style="opacity:0.137" fill="#ffe3cd" d="M 195.5,227.5 C 195.833,227.5 196.167,227.5 196.5,227.5C 196.5,227.833 196.5,228.167 196.5,228.5C 196.5,228.833 196.5,229.167 196.5,229.5C 195.094,229.973 194.427,230.973 194.5,232.5C 194.5,233.167 194.5,233.833 194.5,234.5C 192.259,235.3 191.259,236.966 191.5,239.5C 190.094,239.973 189.427,240.973 189.5,242.5C 188.227,244.713 187.227,247.046 186.5,249.5C 184.755,251.033 183.755,253.033 183.5,255.5C 181.085,258.34 179.752,261.673 179.5,265.5C 178.833,265.833 178.167,266.167 177.5,266.5C 177.557,265.391 177.89,264.391 178.5,263.5C 183.072,251.021 188.739,239.021 195.5,227.5 Z"/></g>
<g><path style="opacity:0.447" fill="#f8ae82" d="M 257.5,231.5 C 257.245,233.967 256.245,235.967 254.5,237.5C 255.038,235.883 255.371,234.216 255.5,232.5C 256.167,232.167 256.833,231.833 257.5,231.5 Z"/></g>
<g><path style="opacity:0.043" fill="#fff3db" d="M 165.5,237.5 C 165.573,239.027 164.906,240.027 163.5,240.5C 163.427,238.973 164.094,237.973 165.5,237.5 Z"/></g>
<g><path style="opacity:0.09" fill="#fee3cf" d="M 105.5,227.5 C 105.167,228.833 104.833,230.167 104.5,231.5C 103.5,234.167 102.5,236.833 101.5,239.5C 98.9418,241.434 97.6085,244.101 97.5,247.5C 95.058,249.121 93.7247,251.454 93.5,254.5C 92.0937,254.973 91.427,255.973 91.5,257.5C 91.5,257.833 91.5,258.167 91.5,258.5C 90.0937,258.973 89.427,259.973 89.5,261.5C 89.5,261.833 89.5,262.167 89.5,262.5C 88.0937,262.973 87.427,263.973 87.5,265.5C 86.8333,266.167 86.1667,266.833 85.5,267.5C 91.6034,253.837 98.2701,240.504 105.5,227.5 Z"/></g>
<g><path style="opacity:0.969" fill="#ec8e5d" d="M 101.5,239.5 C 100.528,242.437 99.1948,245.103 97.5,247.5C 97.6085,244.101 98.9418,241.434 101.5,239.5 Z"/></g>
<g><path style="opacity:0.694" fill="#f6a782" d="M 191.5,239.5 C 191.573,241.027 190.906,242.027 189.5,242.5C 189.427,240.973 190.094,239.973 191.5,239.5 Z"/></g>
<g><path style="opacity:1" fill="#e87c45" d="M 194.5,234.5 C 192.684,240.625 190.017,246.291 186.5,251.5C 186.5,250.833 186.5,250.167 186.5,249.5C 187.227,247.046 188.227,244.713 189.5,242.5C 190.906,242.027 191.573,241.027 191.5,239.5C 191.259,236.966 192.259,235.3 194.5,234.5 Z"/></g>
<g><path style="opacity:0.675" fill="#eba375" d="M 161.5,242.5 C 161.573,244.027 160.906,245.027 159.5,245.5C 159.427,243.973 160.094,242.973 161.5,242.5 Z"/></g>
<g><path style="opacity:0.859" fill="#f08c59" d="M 250.5,245.5 C 250.25,247.674 249.25,249.341 247.5,250.5C 247.5,250.167 247.5,249.833 247.5,249.5C 248.026,247.77 249.026,246.436 250.5,245.5 Z"/></g>
<g><path style="opacity:0.651" fill="#ef9f6e" d="M 159.5,245.5 C 159.771,247.38 159.104,248.713 157.5,249.5C 157.66,247.847 158.326,246.514 159.5,245.5 Z"/></g>
<g><path style="opacity:0.157" fill="#ffdec9" d="M 263.5,221.5 C 261.611,226.945 259.444,232.278 257,237.5C 252.575,246.328 248.075,254.994 243.5,263.5C 243.5,262.833 243.5,262.167 243.5,261.5C 243.704,259.315 244.37,257.315 245.5,255.5C 246.931,254.22 247.598,252.553 247.5,250.5C 249.25,249.341 250.25,247.674 250.5,245.5C 252.341,243.151 253.674,240.485 254.5,237.5C 256.245,235.967 257.245,233.967 257.5,231.5C 257.5,231.167 257.5,230.833 257.5,230.5C 258.906,230.027 259.573,229.027 259.5,227.5C 259.893,225.716 260.559,224.05 261.5,222.5C 262.167,222.167 262.833,221.833 263.5,221.5 Z"/></g>
<g><path style="opacity:0.049" fill="#fff9ea" d="M 294.5,253.5 C 288.82,252.22 283.153,252.22 277.5,253.5C 277.611,252.883 277.944,252.383 278.5,252C 283.167,251.333 287.833,251.333 292.5,252C 293.416,252.278 294.082,252.778 294.5,253.5 Z"/></g>
<g><path style="opacity:0.522" fill="#f5b996" d="M 294.5,253.5 C 295.5,254.167 296.5,254.833 297.5,255.5C 293.695,254.733 289.861,254.067 286,253.5C 283.152,253.798 280.319,254.131 277.5,254.5C 277.5,254.167 277.5,253.833 277.5,253.5C 283.153,252.22 288.82,252.22 294.5,253.5 Z"/></g>
<g><path style="opacity:0.847" fill="#ec905c" d="M 97.5,247.5 C 96.5324,250.1 95.1991,252.434 93.5,254.5C 93.7247,251.454 95.058,249.121 97.5,247.5 Z"/></g>
<g><path style="opacity:0.863" fill="#e48856" d="M 247.5,250.5 C 247.598,252.553 246.931,254.22 245.5,255.5C 245.402,253.447 246.069,251.78 247.5,250.5 Z"/></g>
<g><path style="opacity:0.722" fill="#f2a677" d="M 186.5,249.5 C 186.5,250.167 186.5,250.833 186.5,251.5C 185.857,253.076 184.857,254.41 183.5,255.5C 183.755,253.033 184.755,251.033 186.5,249.5 Z"/></g>
<g><path style="opacity:1" fill="#e87133" d="M 297.5,255.5 C 298.527,257.194 299.861,258.527 301.5,259.5C 296.74,258.547 292.073,257.213 287.5,255.5C 283.514,256.11 279.514,256.61 275.5,257C 274.022,259.039 272.022,259.872 269.5,259.5C 271.484,256.836 274.151,255.169 277.5,254.5C 280.319,254.131 283.152,253.798 286,253.5C 289.861,254.067 293.695,254.733 297.5,255.5 Z"/></g>
<g><path style="opacity:0.094" fill="#ffecdc" d="M 294.5,253.5 C 296.483,253.157 297.817,253.824 298.5,255.5C 298.167,255.5 297.833,255.5 297.5,255.5C 296.5,254.833 295.5,254.167 294.5,253.5 Z"/></g>
<g><path style="opacity:0.663" fill="#f3a37f" d="M 93.5,254.5 C 93.573,256.027 92.9063,257.027 91.5,257.5C 91.427,255.973 92.0937,254.973 93.5,254.5 Z"/></g>
<g><path style="opacity:0.051" fill="#ffe9da" d="M 299.5,255.5 C 301.632,255.554 302.965,256.554 303.5,258.5C 301.77,257.974 300.436,256.974 299.5,255.5 Z"/></g>
<g><path style="opacity:1" fill="#ea793d" d="M 157.5,249.5 C 155.305,254.085 153.305,258.751 151.5,263.5C 151.167,263.5 150.833,263.5 150.5,263.5C 150.593,259.39 151.76,255.724 154,252.5C 155.039,251.29 156.206,250.29 157.5,249.5 Z"/></g>
<g><path style="opacity:0.702" fill="#f2a67c" d="M 297.5,255.5 C 297.833,255.5 298.167,255.5 298.5,255.5C 298.833,255.5 299.167,255.5 299.5,255.5C 300.436,256.974 301.77,257.974 303.5,258.5C 303.5,258.833 303.5,259.167 303.5,259.5C 302.833,259.5 302.167,259.5 301.5,259.5C 299.861,258.527 298.527,257.194 297.5,255.5 Z"/></g>
<g><path style="opacity:0.239" fill="#ffd6bd" d="M 163.5,240.5 C 160.398,248.491 156.732,256.157 152.5,263.5C 152.167,263.5 151.833,263.5 151.5,263.5C 153.305,258.751 155.305,254.085 157.5,249.5C 159.104,248.713 159.771,247.38 159.5,245.5C 160.906,245.027 161.573,244.027 161.5,242.5C 161.5,242.167 161.5,241.833 161.5,241.5C 162.167,241.167 162.833,240.833 163.5,240.5 Z"/></g>
<g><path style="opacity:0.129" fill="#fee0cd" d="M 277.5,253.5 C 277.5,253.833 277.5,254.167 277.5,254.5C 274.151,255.169 271.484,256.836 269.5,259.5C 267.973,259.427 266.973,260.094 266.5,261.5C 265.167,261.5 264.5,262.167 264.5,263.5C 262.97,264.211 261.637,265.211 260.5,266.5C 263.866,259.131 269.533,254.798 277.5,253.5 Z"/></g>
<g><path style="opacity:1" fill="#ea6b27" d="M 247.5,249.5 C 247.5,249.833 247.5,250.167 247.5,250.5C 246.069,251.78 245.402,253.447 245.5,255.5C 244.37,257.315 243.704,259.315 243.5,261.5C 242.094,261.973 241.427,262.973 241.5,264.5C 239.025,265.687 238.025,267.687 238.5,270.5C 237.172,273.497 235.839,276.497 234.5,279.5C 233.833,279.833 233.167,280.167 232.5,280.5C 234.797,276.26 235.963,271.593 236,266.5C 239.498,263.169 240.665,259.169 239.5,254.5C 241.259,253.246 242.759,253.579 244,255.5C 244.305,253.443 244.305,251.443 244,249.5C 244.986,248.829 246.153,248.829 247.5,249.5 Z"/></g>
<g><path style="opacity:0.698" fill="#f4a076" d="M 91.5,258.5 C 91.573,260.027 90.9063,261.027 89.5,261.5C 89.427,259.973 90.0937,258.973 91.5,258.5 Z"/></g>
<g><path style="opacity:1" fill="#e07f4d" d="M 269.5,259.5 C 269.027,260.906 268.027,261.573 266.5,261.5C 266.973,260.094 267.973,259.427 269.5,259.5 Z"/></g>
<g><path style="opacity:0.894" fill="#ed9869" d="M 303.5,259.5 C 306.243,261.239 308.243,263.573 309.5,266.5C 306.757,264.761 304.757,262.427 303.5,259.5 Z"/></g>
<g><path style="opacity:0.047" fill="#ffe9d9" d="M 303.5,259.5 C 303.5,259.167 303.5,258.833 303.5,258.5C 309.545,261.563 312.878,266.563 313.5,273.5C 313.167,273.5 312.833,273.5 312.5,273.5C 312.167,272.167 311.833,270.833 311.5,269.5C 311.573,267.973 310.906,266.973 309.5,266.5C 308.243,263.573 306.243,261.239 303.5,259.5 Z"/></g>
<g><path style="opacity:1" fill="#ea8955" d="M 183.5,255.5 C 183.248,259.327 181.915,262.66 179.5,265.5C 179.752,261.673 181.085,258.34 183.5,255.5 Z"/></g>
<g><path style="opacity:0.014" fill="#fff4ee" d="M 178.5,263.5 C 177.89,264.391 177.557,265.391 177.5,266.5C 177.5,266.833 177.5,267.167 177.5,267.5C 176.833,267.833 176.167,268.167 175.5,268.5C 175.592,266.152 176.592,264.486 178.5,263.5 Z"/></g>
<g><path style="opacity:0.58" fill="#f7b088" d="M 243.5,261.5 C 243.5,262.167 243.5,262.833 243.5,263.5C 242.833,263.833 242.167,264.167 241.5,264.5C 241.427,262.973 242.094,261.973 243.5,261.5 Z"/></g>
<g><path style="opacity:0.659" fill="#f5a179" d="M 89.5,262.5 C 89.573,264.027 88.9063,265.027 87.5,265.5C 87.427,263.973 88.0937,262.973 89.5,262.5 Z"/></g>
<g><path style="opacity:0.014" fill="#fffcf2" d="M 151.5,263.5 C 151.833,263.5 152.167,263.5 152.5,263.5C 152.715,265.179 152.048,266.179 150.5,266.5C 151.11,265.609 151.443,264.609 151.5,263.5 Z"/></g>
<g><path style="opacity:0.4" fill="#f8b486" d="M 150.5,263.5 C 150.833,263.5 151.167,263.5 151.5,263.5C 151.443,264.609 151.11,265.609 150.5,266.5C 149.833,266.833 149.167,267.167 148.5,267.5C 148.733,265.938 149.4,264.605 150.5,263.5 Z"/></g>
<g><path style="opacity:0.816" fill="#f0a275" d="M 264.5,263.5 C 262.638,266.448 260.971,269.448 259.5,272.5C 259.517,270.435 259.85,268.435 260.5,266.5C 261.637,265.211 262.97,264.211 264.5,263.5 Z"/></g>
<g><path style="opacity:0.957" fill="#ea8a51" d="M 241.5,264.5 C 240.492,266.544 239.492,268.544 238.5,270.5C 238.025,267.687 239.025,265.687 241.5,264.5 Z"/></g>
<g><path style="opacity:1" fill="#eb9161" d="M 87.5,265.5 C 87.7406,267.898 87.0739,269.898 85.5,271.5C 85.5,270.167 85.5,268.833 85.5,267.5C 86.1667,266.833 86.8333,266.167 87.5,265.5 Z"/></g>
<g><path style="opacity:1" fill="#e48149" d="M 148.5,267.5 C 148.011,268.995 147.345,270.329 146.5,271.5C 146.157,269.517 146.824,268.183 148.5,267.5 Z"/></g>
<g><path style="opacity:0.243" fill="#fedbc6" d="M 150.5,266.5 C 149.354,269.943 148.021,273.277 146.5,276.5C 146.5,274.833 146.5,273.167 146.5,271.5C 147.345,270.329 148.011,268.995 148.5,267.5C 149.167,267.167 149.833,266.833 150.5,266.5 Z"/></g>
<g><path style="opacity:0.557" fill="#f7b493" d="M 309.5,266.5 C 310.906,266.973 311.573,267.973 311.5,269.5C 310.833,269.167 310.167,268.833 309.5,268.5C 309.5,267.833 309.5,267.167 309.5,266.5 Z"/></g>
<g><path style="opacity:0.369" fill="#fcc1a1" d="M 177.5,267.5 C 177.34,269.153 176.674,270.486 175.5,271.5C 175.5,271.167 175.5,270.833 175.5,270.5C 175.5,269.833 175.5,269.167 175.5,268.5C 176.167,268.167 176.833,267.833 177.5,267.5 Z"/></g>
<g><path style="opacity:1" fill="#ef6419" d="M 301.5,259.5 C 302.167,259.5 302.833,259.5 303.5,259.5C 304.757,262.427 306.757,264.761 309.5,266.5C 309.5,267.167 309.5,267.833 309.5,268.5C 311.25,274.615 311.916,280.948 311.5,287.5C 310.02,290.726 308.353,294.059 306.5,297.5C 305.311,298.429 303.978,298.762 302.5,298.5C 302.5,299.833 302.5,301.167 302.5,302.5C 302.5,302.833 302.5,303.167 302.5,303.5C 299.022,304.954 295.355,305.954 291.5,306.5C 284.288,306.803 277.288,305.803 270.5,303.5C 269.078,302.075 267.411,301.075 265.5,300.5C 265.573,298.973 264.906,297.973 263.5,297.5C 262.662,297.158 262.328,296.492 262.5,295.5C 262.573,293.973 261.906,292.973 260.5,292.5C 260.5,291.833 260.5,291.167 260.5,290.5C 259.725,285.203 259.392,279.87 259.5,274.5C 259.5,273.833 259.5,273.167 259.5,272.5C 260.971,269.448 262.638,266.448 264.5,263.5C 264.5,262.167 265.167,261.5 266.5,261.5C 268.027,261.573 269.027,260.906 269.5,259.5C 272.022,259.872 274.022,259.039 275.5,257C 279.514,256.61 283.514,256.11 287.5,255.5C 292.073,257.213 296.74,258.547 301.5,259.5 Z"/></g>
<g><path style="opacity:1" fill="#e9824c" d="M 179.5,265.5 C 176.807,273.857 175.807,282.523 176.5,291.5C 176.167,291.5 175.833,291.5 175.5,291.5C 174.315,284.684 174.315,278.017 175.5,271.5C 176.674,270.486 177.34,269.153 177.5,267.5C 177.5,267.167 177.5,266.833 177.5,266.5C 178.167,266.167 178.833,265.833 179.5,265.5 Z"/></g>
<g><path style="opacity:0.38" fill="#f5af89" d="M 146.5,271.5 C 146.5,273.167 146.5,274.833 146.5,276.5C 145.1,277.1 144.1,278.1 143.5,279.5C 143.62,276.422 144.62,273.755 146.5,271.5 Z"/></g>
<g><path style="opacity:0.149" fill="#fff0e0" d="M 146.5,276.5 C 146.047,278.565 145.047,280.232 143.5,281.5C 143.5,280.833 143.5,280.167 143.5,279.5C 144.1,278.1 145.1,277.1 146.5,276.5 Z"/></g>
<g><path style="opacity:0.062" fill="#fff1e1" d="M 260.5,266.5 C 259.85,268.435 259.517,270.435 259.5,272.5C 258.883,272.611 258.383,272.944 258,273.5C 257.303,279.537 257.47,285.537 258.5,291.5C 257.778,291.082 257.278,290.416 257,289.5C 256.17,283.472 256.336,277.472 257.5,271.5C 258.065,269.456 259.065,267.79 260.5,266.5 Z"/></g>
<g><path style="opacity:1" fill="#e27132" d="M 309.5,268.5 C 310.167,268.833 310.833,269.167 311.5,269.5C 311.833,270.833 312.167,272.167 312.5,273.5C 312.5,278.167 312.5,282.833 312.5,287.5C 312.167,287.5 311.833,287.5 311.5,287.5C 311.916,280.948 311.25,274.615 309.5,268.5 Z"/></g>
<g><path style="opacity:0.514" fill="#fdd9c3" d="M 85.5,267.5 C 85.5,268.833 85.5,270.167 85.5,271.5C 83.9942,274.356 83.3275,277.523 83.5,281C 83.3275,284.477 83.9942,287.644 85.5,290.5C 85.5,291.167 85.5,291.833 85.5,292.5C 85.5,293.167 85.5,293.833 85.5,294.5C 83.8951,292.52 82.7285,290.187 82,287.5C 81.3333,283.167 81.3333,278.833 82,274.5C 82.7285,271.813 83.8951,269.48 85.5,267.5 Z"/></g>
<g><path style="opacity:0.951" fill="#ea8a59" d="M 85.5,271.5 C 84.1667,277.833 84.1667,284.167 85.5,290.5C 83.9942,287.644 83.3275,284.477 83.5,281C 83.3275,277.523 83.9942,274.356 85.5,271.5 Z"/></g>
<g><path style="opacity:0.447" fill="#f8b591" d="M 312.5,273.5 C 312.833,273.5 313.167,273.5 313.5,273.5C 313.83,276.157 314.163,278.824 314.5,281.5C 314.639,283.883 313.972,285.883 312.5,287.5C 312.5,282.833 312.5,278.167 312.5,273.5 Z"/></g>
<g><path style="opacity:0.094" fill="#feddc8" d="M 243.5,263.5 C 238.365,274.894 233.032,286.227 227.5,297.5C 227.043,298.298 226.376,298.631 225.5,298.5C 226.907,294.688 228.574,291.022 230.5,287.5C 231.537,286.07 232.204,284.403 232.5,282.5C 233.906,282.027 234.573,281.027 234.5,279.5C 235.839,276.497 237.172,273.497 238.5,270.5C 239.492,268.544 240.492,266.544 241.5,264.5C 242.167,264.167 242.833,263.833 243.5,263.5 Z"/></g>
<g><path style="opacity:1" fill="#e37236" d="M 259.5,274.5 C 259.392,279.87 259.725,285.203 260.5,290.5C 258.994,287.644 258.328,284.477 258.5,281C 258.504,278.639 258.837,276.473 259.5,274.5 Z"/></g>
<g><path style="opacity:0.627" fill="#f6a578" d="M 234.5,279.5 C 234.573,281.027 233.906,282.027 232.5,282.5C 232.5,281.833 232.5,281.167 232.5,280.5C 233.167,280.167 233.833,279.833 234.5,279.5 Z"/></g>
<g><path style="opacity:0.784" fill="#ef9c72" d="M 143.5,279.5 C 143.5,280.167 143.5,280.833 143.5,281.5C 142.5,282.167 141.5,282.833 140.5,283.5C 140.554,281.368 141.554,280.035 143.5,279.5 Z"/></g>
<g><path style="opacity:0.198" fill="#fee2cd" d="M 175.5,270.5 C 175.5,270.833 175.5,271.167 175.5,271.5C 174.315,278.017 174.315,284.684 175.5,291.5C 174.883,291.389 174.383,291.056 174,290.5C 173.833,287.167 173.667,283.833 173.5,280.5C 173.514,276.761 174.18,273.428 175.5,270.5 Z"/></g>
<g><path style="opacity:0.992" fill="#e8864c" d="M 140.5,283.5 C 140.245,285.967 139.245,287.967 137.5,289.5C 137.621,286.895 138.621,284.895 140.5,283.5 Z"/></g>
<g><path style="opacity:0.886" fill="#e7915d" d="M 232.5,282.5 C 232.204,284.403 231.537,286.07 230.5,287.5C 230.12,285.302 230.787,283.635 232.5,282.5 Z"/></g>
<g><path style="opacity:0.451" fill="#f9b18b" d="M 259.5,272.5 C 259.5,273.167 259.5,273.833 259.5,274.5C 258.837,276.473 258.504,278.639 258.5,281C 258.328,284.477 258.994,287.644 260.5,290.5C 260.5,291.167 260.5,291.833 260.5,292.5C 259.833,292.167 259.167,291.833 258.5,291.5C 257.47,285.537 257.303,279.537 258,273.5C 258.383,272.944 258.883,272.611 259.5,272.5 Z"/></g>
<g><path style="opacity:0.051" fill="#ffe4d3" d="M 143.5,281.5 C 141.386,287.798 138.553,293.798 135,299.5C 133.549,301.464 131.716,302.797 129.5,303.5C 130.833,301.833 132.167,300.167 133.5,298.5C 135.601,295.873 136.934,292.873 137.5,289.5C 139.245,287.967 140.245,285.967 140.5,283.5C 141.5,282.833 142.5,282.167 143.5,281.5 Z"/></g>
<g><path style="opacity:0.157" fill="#ffe0ce" d="M 175.5,291.5 C 175.833,291.5 176.167,291.5 176.5,291.5C 176.427,293.027 177.094,294.027 178.5,294.5C 178.5,294.833 178.5,295.167 178.5,295.5C 178.5,296.167 178.5,296.833 178.5,297.5C 176.461,296.089 175.461,294.089 175.5,291.5 Z"/></g>
<g><path style="opacity:0.722" fill="#f29d6e" d="M 176.5,291.5 C 177.906,291.973 178.573,292.973 178.5,294.5C 177.094,294.027 176.427,293.027 176.5,291.5 Z"/></g>
<g><path style="opacity:0.639" fill="#eea781" d="M 85.5,292.5 C 86.9063,292.973 87.573,293.973 87.5,295.5C 86.8333,295.167 86.1667,294.833 85.5,294.5C 85.5,293.833 85.5,293.167 85.5,292.5 Z"/></g>
<g><path style="opacity:0.773" fill="#ea8c5b" d="M 137.5,289.5 C 136.934,292.873 135.601,295.873 133.5,298.5C 133.167,298.5 132.833,298.5 132.5,298.5C 133.807,295.22 135.473,292.22 137.5,289.5 Z"/></g>
<g><path style="opacity:0.882" fill="#eb8d60" d="M 230.5,287.5 C 228.574,291.022 226.907,294.688 225.5,298.5C 224.833,298.833 224.167,299.167 223.5,299.5C 224.814,294.868 227.147,290.868 230.5,287.5 Z"/></g>
<g><path style="opacity:0.859" fill="#e98f60" d="M 260.5,292.5 C 261.906,292.973 262.573,293.973 262.5,295.5C 261.094,295.027 260.427,294.027 260.5,292.5 Z"/></g>
<g><path style="opacity:0.125" fill="#ffe4cc" d="M 85.5,294.5 C 86.1667,294.833 86.8333,295.167 87.5,295.5C 87.3284,296.492 87.6618,297.158 88.5,297.5C 88.5,298.167 88.5,298.833 88.5,299.5C 86.7497,298.341 85.7497,296.674 85.5,294.5 Z"/></g>
<g><path style="opacity:0.322" fill="#f7af8c" d="M 178.5,295.5 C 179.906,295.973 180.573,296.973 180.5,298.5C 179.833,298.167 179.167,297.833 178.5,297.5C 178.5,296.833 178.5,296.167 178.5,295.5 Z"/></g>
<g><path style="opacity:0.937" fill="#e47b41" d="M 311.5,287.5 C 311.833,287.5 312.167,287.5 312.5,287.5C 310.922,293.653 307.588,298.653 302.5,302.5C 302.5,301.167 302.5,299.833 302.5,298.5C 303.978,298.762 305.311,298.429 306.5,297.5C 308.353,294.059 310.02,290.726 311.5,287.5 Z"/></g>
<g><path style="opacity:0.29" fill="#f4b289" d="M 88.5,297.5 C 90.5869,298.585 91.9202,300.251 92.5,302.5C 91.1667,301.5 89.8333,300.5 88.5,299.5C 88.5,298.833 88.5,298.167 88.5,297.5 Z"/></g>
<g><path style="opacity:0.455" fill="#efa77d" d="M 263.5,297.5 C 264.906,297.973 265.573,298.973 265.5,300.5C 264.094,300.027 263.427,299.027 263.5,297.5 Z"/></g>
<g><path style="opacity:0.169" fill="#ffebdb" d="M 258.5,291.5 C 259.167,291.833 259.833,292.167 260.5,292.5C 260.427,294.027 261.094,295.027 262.5,295.5C 262.328,296.492 262.662,297.158 263.5,297.5C 263.427,299.027 264.094,300.027 265.5,300.5C 266.833,302.167 268.167,303.833 269.5,305.5C 263.6,302.599 259.933,297.932 258.5,291.5 Z"/></g>
<g><path style="opacity:0.012" fill="#fff1e6" d="M 88.5,299.5 C 89.8333,300.5 91.1667,301.5 92.5,302.5C 92.5,302.833 92.5,303.167 92.5,303.5C 90.1667,303.167 88.8333,301.833 88.5,299.5 Z"/></g>
<g><path style="opacity:1" fill="#e67033" d="M 87.5,295.5 C 90.0416,297.205 92.7083,298.705 95.5,300C 96.3366,301.011 96.67,302.178 96.5,303.5C 99.0336,303.259 100.7,304.259 101.5,306.5C 100.833,306.5 100.167,306.5 99.5,306.5C 97.3374,304.917 95.0041,303.584 92.5,302.5C 91.9202,300.251 90.5869,298.585 88.5,297.5C 87.6618,297.158 87.3284,296.492 87.5,295.5 Z"/></g>
<g><path style="opacity:0.871" fill="#ef986a" d="M 182.5,300.5 C 184.749,301.08 186.415,302.413 187.5,304.5C 185.251,303.92 183.585,302.587 182.5,300.5 Z"/></g>
<g><path style="opacity:0.384" fill="#f7af87" d="M 132.5,298.5 C 132.833,298.5 133.167,298.5 133.5,298.5C 132.167,300.167 130.833,301.833 129.5,303.5C 128.833,303.5 128.167,303.5 127.5,303.5C 128.833,301.5 130.5,299.833 132.5,298.5 Z"/></g>
<g><path style="opacity:0.255" fill="#feddc8" d="M 313.5,273.5 C 316.776,285.849 313.442,296.349 303.5,305C 300.928,307.287 297.928,308.453 294.5,308.5C 297.47,307.347 300.137,305.68 302.5,303.5C 302.5,303.167 302.5,302.833 302.5,302.5C 307.588,298.653 310.922,293.653 312.5,287.5C 313.972,285.883 314.639,283.883 314.5,281.5C 314.163,278.824 313.83,276.157 313.5,273.5 Z"/></g>
<g><path style="opacity:0.255" fill="#f8c5a6" d="M 92.5,302.5 C 95.0041,303.584 97.3374,304.917 99.5,306.5C 98.5,306.5 97.5,306.5 96.5,306.5C 94.7697,305.974 93.4363,304.974 92.5,303.5C 92.5,303.167 92.5,302.833 92.5,302.5 Z"/></g>
<g><path style="opacity:0.976" fill="#e3793d" d="M 127.5,303.5 C 125.574,304.486 123.574,305.486 121.5,306.5C 122.607,304.031 124.607,303.031 127.5,303.5 Z"/></g>
<g><path style="opacity:0.773" fill="#f09c70" d="M 220.5,302.5 C 219.341,304.25 217.674,305.25 215.5,305.5C 216.659,303.75 218.326,302.75 220.5,302.5 Z"/></g>
<g><path style="opacity:0.094" fill="#ffe8d7" d="M 178.5,297.5 C 179.167,297.833 179.833,298.167 180.5,298.5C 181.5,298.833 182.167,299.5 182.5,300.5C 183.585,302.587 185.251,303.92 187.5,304.5C 187.973,305.906 188.973,306.573 190.5,306.5C 192.924,307.03 195.257,307.864 197.5,309C 201.027,309.808 204.36,309.641 207.5,308.5C 208.833,308.5 210.167,308.5 211.5,308.5C 202.053,311.866 193.053,310.699 184.5,305C 181.882,302.894 179.882,300.394 178.5,297.5 Z"/></g>
<g><path style="opacity:0.451" fill="#f4b48f" d="M 265.5,300.5 C 267.411,301.075 269.078,302.075 270.5,303.5C 270.833,304.167 271.167,304.833 271.5,305.5C 271.167,305.5 270.833,305.5 270.5,305.5C 270.167,305.5 269.833,305.5 269.5,305.5C 268.167,303.833 266.833,302.167 265.5,300.5 Z"/></g>
<g><path style="opacity:0.604" fill="#ed9b71" d="M 302.5,303.5 C 300.137,305.68 297.47,307.347 294.5,308.5C 293.167,308.5 291.833,308.5 290.5,308.5C 290.833,307.833 291.167,307.167 291.5,306.5C 295.355,305.954 299.022,304.954 302.5,303.5 Z"/></g>
<g><path style="opacity:0.639" fill="#f0a57a" d="M 187.5,304.5 C 188.609,304.557 189.609,304.89 190.5,305.5C 190.5,305.833 190.5,306.167 190.5,306.5C 188.973,306.573 187.973,305.906 187.5,304.5 Z"/></g>
<g><path style="opacity:0.18" fill="#fcd7bc" d="M 225.5,298.5 C 222.629,304.275 217.962,307.609 211.5,308.5C 210.167,308.5 208.833,308.5 207.5,308.5C 207.5,308.167 207.5,307.833 207.5,307.5C 210.327,307.416 212.994,306.75 215.5,305.5C 217.674,305.25 219.341,304.25 220.5,302.5C 221.167,301.167 222.167,300.167 223.5,299.5C 224.167,299.167 224.833,298.833 225.5,298.5 Z"/></g>
<g><path style="opacity:0.878" fill="#eb9d6c" d="M 271.5,305.5 C 273.698,305.12 275.365,305.787 276.5,307.5C 274.597,307.204 272.93,306.537 271.5,305.5 Z"/></g>
<g><path style="opacity:0.059" fill="#ffefe3" d="M 96.5,306.5 C 97.5,306.5 98.5,306.5 99.5,306.5C 99.8333,307.167 100.167,307.833 100.5,308.5C 98.847,308.34 97.5137,307.674 96.5,306.5 Z"/></g>
<g><path style="opacity:1" fill="#e87236" d="M 101.5,306.5 C 108.167,306.5 114.833,306.5 121.5,306.5C 120.791,307.404 119.791,307.737 118.5,307.5C 113.87,308.229 109.203,308.563 104.5,308.5C 103.5,307.833 102.5,307.167 101.5,306.5 Z"/></g>
<g><path style="opacity:0.102" fill="#ffebcc" d="M 270.5,305.5 C 270.833,305.5 271.167,305.5 271.5,305.5C 272.93,306.537 274.597,307.204 276.5,307.5C 276.5,307.833 276.5,308.167 276.5,308.5C 273.784,308.614 271.784,307.614 270.5,305.5 Z"/></g>
<g><path style="opacity:1" fill="#ea6e2f" d="M 270.5,303.5 C 277.288,305.803 284.288,306.803 291.5,306.5C 291.167,307.167 290.833,307.833 290.5,308.5C 285.797,308.563 281.13,308.229 276.5,307.5C 275.365,305.787 273.698,305.12 271.5,305.5C 271.167,304.833 270.833,304.167 270.5,303.5 Z"/></g>
<g><path style="opacity:0.373" fill="#f9b99e" d="M 99.5,306.5 C 100.167,306.5 100.833,306.5 101.5,306.5C 102.5,307.167 103.5,307.833 104.5,308.5C 103.833,308.5 103.167,308.5 102.5,308.5C 101.833,308.5 101.167,308.5 100.5,308.5C 100.167,307.833 99.8333,307.167 99.5,306.5 Z"/></g>
<g><path style="opacity:0.957" fill="#ee8b5b" d="M 190.5,306.5 C 190.5,306.167 190.5,305.833 190.5,305.5C 195.956,307.12 201.623,307.787 207.5,307.5C 207.5,307.833 207.5,308.167 207.5,308.5C 204.36,309.641 201.027,309.808 197.5,309C 195.257,307.864 192.924,307.03 190.5,306.5 Z"/></g>
<g><path style="opacity:0.678" fill="#f3a882" d="M 118.5,307.5 C 116.193,309.047 113.527,309.713 110.5,309.5C 108.304,309.495 106.304,309.162 104.5,308.5C 109.203,308.563 113.87,308.229 118.5,307.5 Z"/></g>
<g><path style="opacity:0.608" fill="#f5ae87" d="M 276.5,308.5 C 276.5,308.167 276.5,307.833 276.5,307.5C 281.13,308.229 285.797,308.563 290.5,308.5C 286.299,309.736 281.965,309.736 277.5,308.5C 277.167,308.5 276.833,308.5 276.5,308.5 Z"/></g>
<g><path style="opacity:0.155" fill="#fee5d3" d="M 127.5,303.5 C 128.167,303.5 128.833,303.5 129.5,303.5C 128.475,305.201 126.975,306.535 125,307.5C 118.107,310.361 110.94,311.195 103.5,310C 102.944,309.617 102.611,309.117 102.5,308.5C 103.167,308.5 103.833,308.5 104.5,308.5C 106.304,309.162 108.304,309.495 110.5,309.5C 113.527,309.713 116.193,309.047 118.5,307.5C 119.791,307.737 120.791,307.404 121.5,306.5C 123.574,305.486 125.574,304.486 127.5,303.5 Z"/></g>
<g><path style="opacity:0.098" fill="#ffebd6" d="M 277.5,308.5 C 281.965,309.736 286.299,309.736 290.5,308.5C 291.833,308.5 293.167,308.5 294.5,308.5C 294.389,309.117 294.056,309.617 293.5,310C 288.5,310.667 283.5,310.667 278.5,310C 277.944,309.617 277.611,309.117 277.5,308.5 Z"/></g>
</svg>
